<svg width="618" height="495" viewBox="0 0 618 495" fill="none" xmlns="http://www.w3.org/2000/svg">
<path d="M617.86 169.14V325.86C617.86 351.054 613.043 374.399 603.407 395.894C593.957 417.389 581.265 435.272 565.33 449.544C549.395 463.815 531.143 474.915 510.576 482.843C490.008 490.948 468.515 495 446.094 495H423.859V475.972H446.372C466.013 475.972 484.913 472.448 503.072 465.4C521.415 458.353 537.536 448.574 551.433 436.065C565.515 423.38 576.725 407.523 585.063 388.494C593.587 369.29 597.849 348.412 597.849 325.86V169.14C597.849 146.588 593.587 125.798 585.063 106.77C576.725 87.5654 565.515 71.7085 551.433 59.1991C537.536 46.5136 521.415 36.6471 503.072 29.5996C484.913 22.5521 466.013 19.0283 446.372 19.0283H423.859V0H446.094C468.515 0 490.008 4.05232 510.576 12.157C531.143 20.0854 549.395 31.1853 565.33 45.4565C581.265 59.7277 593.957 77.6108 603.407 99.1057C613.043 120.601 617.86 143.946 617.86 169.14ZM577.837 169.14V325.86C577.837 352.112 571.537 375.368 558.937 395.63C546.337 415.892 530.032 431.22 510.02 441.615C490.194 451.834 468.7 456.943 445.538 456.943H423.859V437.915H446.094C460.732 437.915 474.722 435.36 488.063 430.251C501.404 425.141 513.263 418.006 523.639 408.844C534.015 399.506 542.261 387.702 548.376 373.43C554.675 358.983 557.825 343.126 557.825 325.86V169.14C557.825 151.874 554.675 136.105 548.376 121.834C542.261 107.387 534.015 95.582 523.639 86.4202C513.263 77.0822 501.404 69.8585 488.063 64.7491C474.722 59.6396 460.732 57.0849 446.094 57.0849H423.859V38.0566H445.538C468.7 38.0566 490.194 43.2541 510.02 53.6492C530.032 63.8681 546.337 79.1084 558.937 99.37C571.537 119.632 577.837 142.888 577.837 169.14ZM537.814 169.14V325.86C537.814 354.402 528.827 377.042 510.854 393.78C492.88 410.518 471.294 418.887 446.094 418.887H423.859V399.859H446.928C467.866 399.859 484.913 393.604 498.069 381.094C511.224 368.409 517.802 349.997 517.802 325.86V169.14C517.802 145.003 511.224 126.679 498.069 114.17C484.913 101.484 467.866 95.1415 446.928 95.1415H423.859V76.1132H446.094C471.294 76.1132 492.88 84.4821 510.854 101.22C528.827 117.958 537.814 140.598 537.814 169.14ZM497.791 169.14V325.86C497.791 344.183 492.695 357.926 482.504 367.088C472.498 376.249 460.084 380.83 445.26 380.83H423.859V361.802H444.427C454.618 361.802 462.678 359.247 468.607 354.138C474.722 349.028 477.779 339.602 477.779 325.86V169.14C477.779 155.398 474.722 145.972 468.607 140.862C462.678 135.753 454.618 133.198 444.427 133.198H423.859V114.17H445.26C460.084 114.17 472.498 118.751 482.504 127.912C492.695 137.074 497.791 150.817 497.791 169.14Z" fill="white"/>
<path d="M358.82 76.3782H378.832V456.944H358.82V76.3782ZM318.797 76.3782H338.809V456.944H318.797V76.3782ZM278.774 76.3782H298.786V456.944H278.774V76.3782ZM238.751 76.3782H258.763V456.944H238.751V76.3782Z" fill="white"/>
<path d="M120.069 325.86V169.14C120.069 150.817 125.072 137.074 135.078 127.912C145.269 118.751 157.776 114.17 172.6 114.17H194.001V133.198H173.434C163.242 133.198 155.09 135.753 148.975 140.862C143.046 145.972 140.081 155.398 140.081 169.14V325.86C140.081 339.602 143.046 349.028 148.975 354.138C155.09 359.247 163.242 361.802 173.434 361.802H194.001V380.83H172.6C157.776 380.83 145.269 376.249 135.078 367.088C125.072 357.926 120.069 344.183 120.069 325.86ZM80.0462 325.86V169.14C80.0462 140.598 89.0329 117.958 107.006 101.22C124.98 84.4821 146.566 76.1132 171.766 76.1132H194.001V95.1415H170.932C149.994 95.1415 132.947 101.484 119.791 114.17C106.636 126.679 100.058 145.003 100.058 169.14V325.86C100.058 349.997 106.636 368.409 119.791 381.094C132.947 393.604 149.994 399.859 170.932 399.859H194.001V418.887H171.766C146.566 418.887 124.98 410.518 107.006 393.78C89.0329 377.042 80.0462 354.402 80.0462 325.86ZM40.0231 325.86V169.14C40.0231 142.888 46.3231 119.632 58.9229 99.37C71.5228 79.1084 87.7359 63.8681 107.562 53.6492C127.574 43.2541 149.16 38.0566 172.322 38.0566H194.001V57.0849H171.766C157.128 57.0849 143.138 59.6396 129.797 64.7491C116.456 69.8585 104.597 77.0822 94.2211 86.4202C83.8447 95.582 75.5066 107.387 69.2067 121.834C63.092 136.105 60.0347 151.874 60.0347 169.14V325.86C60.0347 343.126 63.092 358.983 69.2067 373.43C75.5066 387.702 83.8447 399.506 94.2211 408.844C104.597 418.006 116.456 425.141 129.797 430.251C143.138 435.36 157.128 437.915 171.766 437.915H194.001V456.943H172.322C149.16 456.943 127.574 451.834 107.562 441.615C87.7359 431.22 71.5228 415.892 58.9229 395.63C46.3231 375.368 40.0231 352.112 40.0231 325.86ZM0 325.86V169.14C0 143.946 4.72495 120.601 14.1749 99.1057C23.8101 77.6108 36.5952 59.7277 52.5304 45.4565C68.4655 31.1853 86.7168 20.0854 107.284 12.157C127.852 4.05232 149.346 0 171.766 0H194.001V19.0283H171.488C151.847 19.0283 132.855 22.5521 114.511 29.5996C96.352 36.6471 80.2315 46.5136 66.1493 59.1991C52.2524 71.7085 41.0422 87.5654 32.5188 106.77C24.1806 125.798 20.0116 146.588 20.0116 169.14V325.86C20.0116 348.412 24.1806 369.29 32.5188 388.494C41.0422 407.523 52.2524 423.38 66.1493 436.065C80.2315 448.574 96.352 458.353 114.511 465.4C132.855 472.448 151.847 475.972 171.488 475.972H194.001V495H171.766C149.346 495 127.852 490.948 107.284 482.843C86.7168 474.915 68.4655 463.815 52.5304 449.544C36.5952 435.272 23.8101 417.389 14.1749 395.894C4.72495 374.399 0 351.054 0 325.86Z" fill="white"/>
</svg>
